<?xml version="1.0" encoding="utf-8"?>
<!-- Generator: Adobe Illustrator 16.0.0, SVG Export Plug-In . SVG Version: 6.00 Build 0)  -->
<!DOCTYPE svg PUBLIC "-//W3C//DTD SVG 1.1//EN" "http://www.w3.org/Graphics/SVG/1.1/DTD/svg11.dtd">
<svg version="1.1" id="Capa_1" xmlns="http://www.w3.org/2000/svg" xmlns:xlink="http://www.w3.org/1999/xlink" x="0px" y="0px"
	 width="1008px" height="1008px" viewBox="0 0 1008 1008" enable-background="new 0 0 1008 1008" xml:space="preserve">
<g>
	<path fill="#FFFFFF" d="M992.843,439.003l-58.39-11.237c-34.384-6.608-62.552-29.998-75.319-62.608
		c-12.806-32.573-8.083-68.88,12.637-97.123l36.661-50.008c5.451-7.411,4.648-17.715-1.866-24.229l-79.185-79.184
		c-6.327-6.328-16.258-7.28-23.669-2.259l-49.242,33.339c-28.971,19.637-65.427,22.979-97.515,8.997
		c-32.088-14-54.433-43.026-59.752-77.616l-9.427-61.264C586.376,6.72,578.555,0,569.333,0h-112c-8.941,0-16.65,6.347-18.33,15.157
		l-14.504,75.414c-6.478,33.619-29.214,61.525-60.854,74.61c-31.621,13.142-67.443,9.464-95.779-9.725l-63.579-43.083
		c-7.411-5.003-17.341-4.069-23.669,2.258l-79.203,79.184c-6.515,6.515-7.299,16.8-1.867,24.248l36.662,50.008
		c20.701,28.224,25.424,64.531,12.637,97.123c-12.805,32.573-40.955,55.981-75.339,62.589L15.12,439.021
		C6.347,440.683,0,448.392,0,457.333v112c0,9.203,6.72,17.043,15.83,18.443l61.282,9.427c34.589,5.319,63.616,27.645,77.598,59.732
		c14,32.107,10.64,68.563-8.998,97.553l-33.338,49.242c-5.021,7.393-4.069,17.342,2.258,23.67l79.184,79.184
		c6.515,6.496,16.781,7.336,24.229,1.866l50.008-36.661c28.224-20.701,64.531-25.479,97.104-12.637
		c32.592,12.786,56,40.936,62.608,75.319l11.237,58.39c1.68,8.792,9.389,15.139,18.33,15.139h112c9.222,0,17.062-6.72,18.443-15.829
		l6.626-43.102c5.451-35.392,28.43-64.68,61.488-78.362c33.059-13.627,70.019-9.24,98.877,11.946l35.168,25.778
		c7.448,5.47,17.733,4.63,24.229-1.866l79.185-79.184c6.328-6.328,7.279-16.259,2.259-23.67L862.27,754.47
		c-19.638-28.989-22.997-65.445-8.997-97.534c14-32.106,43.008-54.432,77.615-59.752l61.265-9.426
		c9.128-1.382,15.848-9.222,15.848-18.425v-112C1008,448.392,1001.653,440.683,992.843,439.003z M970.667,553.317l-45.454,7
		c-47.319,7.28-87.005,37.818-106.157,81.723c-19.133,43.886-14.541,93.744,12.32,133.392l24.696,36.475l-56.971,56.971
		l-22.251-16.314c-39.479-28.952-90.011-35-135.259-16.314c-45.211,18.741-76.664,58.781-84.093,107.165l-4.182,27.254h-80.565
		l-8.325-43.232c-9.034-47.04-41.066-85.55-85.643-103.059c-44.521-17.491-94.211-10.995-132.813,17.285l-37.091,27.197
		l-56.971-56.971l24.715-36.475c26.843-39.629,31.454-89.507,12.301-133.392c-19.152-43.886-58.837-74.424-106.157-81.704l-45.435-7
		v-80.547l43.25-8.307c47.021-9.034,85.531-41.048,103.04-85.624c17.491-44.576,11.032-94.229-17.285-132.851l-27.197-37.109
		l56.97-56.971l50.83,34.44c38.771,26.264,87.752,31.267,131.003,13.31c43.25-17.92,74.368-56.075,83.216-102.069l11.592-60.256
		h80.565l7,45.453c7.28,47.32,37.837,87.005,81.723,106.157c43.886,19.152,93.744,14.523,133.392-12.301l36.475-24.696
		l56.971,56.971l-27.197,37.072c-28.317,38.603-34.775,88.275-17.267,132.851c17.491,44.576,56,76.59,103.04,85.624l43.214,8.288
		V553.317z"/>
	<path fill="#FFFFFF" d="M513.333,317.333c-108.08,0-196,87.919-196,196s87.92,196,196,196s196-87.92,196-196
		S621.413,317.333,513.333,317.333z M513.333,672c-87.49,0-158.666-71.176-158.666-158.667c0-87.49,71.176-158.667,158.666-158.667
		c87.491,0,158.667,71.176,158.667,158.667C672,600.824,600.824,672,513.333,672z"/>
	<path fill="#FFFFFF" d="M513.333,410.667c-56.616,0-102.666,46.069-102.666,102.666c0,56.598,46.05,102.667,102.666,102.667
		S616,569.931,616,513.333C616,456.736,569.949,410.667,513.333,410.667z M513.333,578.667c-36.026,0-65.333-29.307-65.333-65.334
		C448,477.307,477.307,448,513.333,448c36.027,0,65.334,29.307,65.334,65.333C578.667,549.36,549.36,578.667,513.333,578.667z"/>
</g>
</svg>
