<?xml version="1.0" encoding="utf-8"?>
<!-- Generator: Adobe Illustrator 16.0.0, SVG Export Plug-In . SVG Version: 6.00 Build 0)  -->
<!DOCTYPE svg PUBLIC "-//W3C//DTD SVG 1.1//EN" "http://www.w3.org/Graphics/SVG/1.1/DTD/svg11.dtd">
<svg version="1.1" id="Capa_1" xmlns="http://www.w3.org/2000/svg" xmlns:xlink="http://www.w3.org/1999/xlink" x="0px" y="0px"
	 width="1008px" height="1008px" viewBox="0 0 1008 1008" enable-background="new 0 0 1008 1008" xml:space="preserve">
<g>
	<g>
		<path fill="#FFFFFF" d="M500.347,543.139c1.044,0,2.088,0,3.34,0c0.418,0,0.835,0,1.253,0c0.626,0,1.461,0,2.087,0
			c61.161-1.044,110.632-22.544,147.161-63.665c80.364-90.593,67.006-245.895,65.544-260.715
			C714.514,107.5,661.911,54.272,618.493,29.432C586.139,10.854,548.357,0.835,506.191,0h-1.461c-0.209,0-0.626,0-0.835,0h-1.252
			c-23.17,0-68.676,3.757-112.302,28.597c-43.835,24.84-97.272,78.068-102.491,190.161c-1.461,14.82-14.821,170.122,65.543,260.715
			C389.716,520.595,439.187,542.095,500.347,543.139z M343.584,223.977c0-0.626,0.209-1.252,0.209-1.67
			C350.682,72.641,456.93,56.568,502.435,56.568h0.835c0.417,0,1.044,0,1.67,0c56.359,1.252,152.171,24.213,158.642,165.738
			c0,0.626,0,1.253,0.209,1.67c0.208,1.461,14.82,143.404-51.559,218.133c-26.302,29.641-61.369,44.252-107.501,44.67
			c-0.417,0-0.626,0-1.044,0l0,0c-0.417,0-0.626,0-1.043,0c-45.923-0.418-81.2-15.029-107.292-44.67
			C329.182,367.798,343.375,225.229,343.584,223.977z"/>
		<path fill="#FFFFFF" d="M932.646,800.723c0-0.209,0-0.418,0-0.627c0-1.67-0.209-3.34-0.209-5.218
			c-1.253-41.33-3.966-137.977-94.559-168.87c-0.626-0.209-1.461-0.417-2.087-0.626c-94.142-24.005-172.419-78.277-173.254-78.903
			c-12.733-8.976-30.268-5.845-39.243,6.889c-8.976,12.732-5.845,30.267,6.889,39.242c3.549,2.505,86.627,60.326,190.579,87.045
			c48.636,17.325,54.062,69.301,55.524,116.894c0,1.878,0,3.548,0.208,5.218c0.209,18.787-1.043,47.802-4.383,64.501
			c-33.816,19.204-166.365,85.583-368.007,85.583c-200.807,0-334.191-66.588-368.215-85.792c-3.34-16.699-4.801-45.714-4.384-64.5
			c0-1.67,0.209-3.34,0.209-5.219c1.461-47.593,6.888-99.568,55.524-116.894c103.952-26.719,187.03-84.748,190.579-87.044
			c12.733-8.977,15.864-26.511,6.889-39.243c-8.976-12.733-26.51-15.864-39.243-6.889c-0.835,0.626-78.694,54.898-173.253,78.903
			c-0.835,0.209-1.461,0.418-2.087,0.626c-90.592,31.103-93.306,127.749-94.559,168.87c0,1.879,0,3.549-0.208,5.219
			c0,0.208,0,0.417,0,0.626c-0.209,10.854-0.417,66.588,10.646,94.559c2.087,5.428,5.845,10.02,10.854,13.15
			C103.117,912.397,253.2,1008,504.313,1008c251.112,0,401.196-95.812,407.458-99.777c4.801-3.131,8.768-7.724,10.854-13.15
			C933.062,867.31,932.854,811.577,932.646,800.723z"/>
	</g>
</g>
</svg>
