<?xml version="1.0" encoding="utf-8"?>
<!-- Generator: Adobe Illustrator 16.0.0, SVG Export Plug-In . SVG Version: 6.00 Build 0)  -->
<!DOCTYPE svg PUBLIC "-//W3C//DTD SVG 1.1//EN" "http://www.w3.org/Graphics/SVG/1.1/DTD/svg11.dtd">
<svg version="1.1" id="Capa_1" xmlns="http://www.w3.org/2000/svg" xmlns:xlink="http://www.w3.org/1999/xlink" x="0px" y="0px"
	 width="1008px" height="1008px" viewBox="0 0 1008 1008" enable-background="new 0 0 1008 1008" xml:space="preserve">
<g>
	<path fill="#FFFFFF" d="M504,0C226.083,0,0,226.083,0,504s226.083,504,504,504s504-226.083,504-504S781.917,0,504,0z M504,969.23
		C247.483,969.23,38.769,760.517,38.769,504S247.483,38.769,504,38.769S969.23,247.483,969.23,504S760.517,969.23,504,969.23z"/>
	<path fill="#FFFFFF" d="M504,717.23c-10.72,0-19.385,8.665-19.385,19.385v38.77c0,10.72,8.665,19.385,19.385,19.385
		s19.385-8.665,19.385-19.385v-38.77C523.385,725.896,514.72,717.23,504,717.23z"/>
	<path fill="#FFFFFF" d="M506.19,174.481c-0.736,0-1.474-0.02-2.229-0.02c-41.018,0-79.593,15.798-108.845,44.662
		c-29.774,29.368-46.193,68.583-46.193,110.415c0,10.72,8.665,19.384,19.385,19.384s19.385-8.665,19.385-19.384
		c0-31.364,12.31-60.791,34.641-82.811c22.351-22.041,52.105-34.214,83.334-33.478c61.274,0.853,113.769,53.347,114.621,114.622
		c0.562,40.397-19.365,77.577-53.327,99.482c-51.562,33.264-82.346,92.038-82.346,157.248v55.091
		c0,10.72,8.665,19.385,19.385,19.385s19.385-8.665,19.385-19.385v-55.091c0-51.215,24.734-98.959,64.59-124.683
		c45.263-29.192,71.839-78.759,71.083-132.59C657.895,244.227,589.312,175.644,506.19,174.481z"/>
</g>
</svg>
