<?xml version="1.0" encoding="utf-8"?>
<!-- Generator: Adobe Illustrator 16.0.0, SVG Export Plug-In . SVG Version: 6.00 Build 0)  -->
<!DOCTYPE svg PUBLIC "-//W3C//DTD SVG 1.1//EN" "http://www.w3.org/Graphics/SVG/1.1/DTD/svg11.dtd">
<svg version="1.1" id="Capa_1" xmlns="http://www.w3.org/2000/svg" xmlns:xlink="http://www.w3.org/1999/xlink" x="0px" y="0px"
	 width="1008px" height="1008px" viewBox="0 0 1008 1008" enable-background="new 0 0 1008 1008" xml:space="preserve">
<path fill="#FFFFFF" d="M983.982,975.78L701.2,681.693c72.128-72.337,116.812-172.061,116.812-282.041
	C818.013,179.272,638.74,0,418.36,0S18.708,179.272,18.708,399.652S197.98,799.306,418.36,799.306
	c96.734,0,185.515-34.58,254.712-91.959l283.468,294.811c3.729,3.901,8.716,5.843,13.722,5.843c4.758,0,9.496-1.77,13.188-5.31
	C991.024,995.401,991.253,983.354,983.982,975.78z M418.36,761.243c-199.389,0-361.591-162.202-361.591-361.591
	c0-199.388,162.202-361.59,361.591-361.59s361.59,162.202,361.59,361.59C779.95,599.041,617.729,761.243,418.36,761.243z"/>
</svg>
